<svg width="65" height="65" viewBox="0 0 65 65" fill="none" xmlns="http://www.w3.org/2000/svg">
<path d="M62 32.5C62 48.7924 48.7924 62 32.5 62C16.2076 62 3 48.7924 3 32.5C3 16.2076 16.2076 3 32.5 3C48.7924 3 62 16.2076 62 32.5Z" fill="black"/>
<path d="M32.9379 22.0297V44.0054M22.0297 33.0972H44.0054M62 32.5C62 48.7924 48.7924 62 32.5 62C16.2076 62 3 48.7924 3 32.5C3 16.2076 16.2076 3 32.5 3C48.7924 3 62 16.2076 62 32.5Z" stroke="white" stroke-width="5" stroke-linecap="round" stroke-linejoin="round"/>
</svg>
